<svg xmlns="http://www.w3.org/2000/svg" width="130" height="130"><path fill="#0a0a0a" d="M32.015 103.503c-16.14-2.968-22.608-21.868-19.883-33.598 2.89-12.442 15.892-20.662 29.66-18.138 3.47.637 6.724 2.45 10.573 3.91-1.024-4.347-2-8.73-3.094-13.08-1.09-4.333-2.298-8.636-3.596-13.482l10.749-3.003 8.083 29.776.913.152 8.177-29.878 10.763 2.9-7.381 27.55c11.098-7.657 26.95-7.59 36.637 4.414 7.799 9.665 5.897 27.105-3.494 36.19-9 8.706-24.18 9.02-34.615.189-2.884-2.44-5.236-2.916-8.421-1.603-.752.31-1.85.777-2.38.47-5.294-3.074-8.66.32-12.736 3.018-5.797 3.838-12.488 5.364-19.955 4.213m39.954-24.22C74 90.254 85.602 97.024 96.139 93.39c7.1-2.45 11.948-11.102 11.087-19.793-.751-7.594-6.82-13.238-15.472-14.387-8.63-1.147-15.276 2.6-18.05 10.507-.977 2.783-1.28 5.8-1.735 9.567m-49.06-6.355c.562 3.724.586 7.634 1.795 11.134 2.58 7.465 8.9 10.967 16.822 10.05 8.547-.988 15.173-6.49 16.436-13.642 1.59-9.015-4.504-19.127-12.712-21.088-9.781-2.338-19.273 3.09-22.34 13.546"/></svg>
