<svg xmlns="http://www.w3.org/2000/svg" xmlns:xlink="http://www.w3.org/1999/xlink" viewBox="0 0 326 283">
  <defs>
    <style>
      .cls-1 {
        clip-path: url(#clip-icon-white);
      }

      .cls-2 {
        fill: #fff;
      }
    </style>
    <clipPath id="clip-icon-white">
      <rect width="326" height="283"/>
    </clipPath>
  </defs>
  <g id="icon-white" class="cls-1">
    <g id="Group_2" data-name="Group 2" transform="translate(-40.342 -56.434)">
      <path id="Path_2" data-name="Path 2" class="cls-2" d="M82.585,252.577a62.273,62.273,0,0,1-19.173,3.046q-19.641,0-29.52-12.066T24.014,209q0-20.617,9.119-32.1t27.007-11.48a52.343,52.343,0,0,1,22.446,5.154ZM81.412.341c.469,11.714,1.173,115.921,1.173,139.427v23.78q-18.968-12.3-34.755-12.3-22.147,0-34.989,14.76T0,204.548q0,28.934,16.551,45.041T62.435,265.7q19.555,0,42.173-6.677-.234-14.877-.234-38.306V151.248c0-17.259-.175-135.023,0-134.976-.83-6.048-3.013-8.8-4.294-10.113A28.452,28.452,0,0,0,91.563.7C88.548-.305,81.539-.039,81.412.341Z" transform="translate(194.638 39.827) rotate(30)"/>
      <path id="Path_3" data-name="Path 3" class="cls-2" d="M22.022,252.577a62.267,62.267,0,0,0,19.172,3.046q19.64,0,29.518-12.066T80.59,209q0-20.617-9.118-32.1t-27.005-11.48a52.337,52.337,0,0,0-22.444,5.154ZM23.195.341c-.469,11.714-1.173,115.921-1.173,139.427v23.78q18.967-12.3,34.753-12.3,22.146,0,34.987,14.76t12.841,38.54q0,28.934-16.55,45.041T42.171,265.7Q22.616,265.7,0,259.019q.234-14.877.234-38.306V151.248c0-17.259.175-135.023,0-134.976.83-6.048,3.013-8.8,4.294-10.113A28.45,28.45,0,0,1,13.044.7C16.059-.305,23.068-.039,23.195.341Z" transform="translate(120.488 91.736) rotate(-30)"/>
    </g>
  </g>
</svg>
